<svg xmlns="http://www.w3.org/2000/svg" viewBox="0 0 550 370" fill="none">
  <path fill="#ffffff" fill-rule="evenodd" d="M292.789 85.079 C 328.657 89.062,361.207 101.688,397.000 125.502 C 411.629 135.234,427.486 147.799,439.539 159.209 C 455.398 174.221,455.133 177.559,437.130 189.518 C 431.833 193.037,424.562 198.522,420.971 201.708 C 388.174 230.803,354.964 246.660,314.371 252.608 C 298.362 254.953,272.037 254.732,254.500 252.105 C 224.337 247.587,191.576 236.471,166.113 222.118 C 154.861 215.775,108.402 185.547,104.627 182.114 C 100.586 178.438,98.749 173.790,100.019 170.451 C 100.572 168.996,107.206 161.629,114.762 154.080 C 164.873 104.014,231.338 78.253,292.789 85.079 M199.205 121.835 C 192.147 124.352,187.366 128.394,183.605 135.025 C 180.881 139.828,180.503 141.424,180.525 148.023 C 180.547 154.544,180.960 156.275,183.627 161.023 C 195.930 182.921,227.609 179.354,234.606 155.282 C 238.259 142.718,232.305 129.232,220.571 123.491 C 213.407 119.986,205.999 119.411,199.205 121.835 M328.332 120.902 C 326.590 121.348,323.135 122.903,320.656 124.356 C 299.753 136.606,304.130 167.749,327.718 174.606 C 345.121 179.666,362.401 166.390,362.349 148.000 C 362.318 137.055,356.890 128.050,347.575 123.493 C 341.841 120.688,333.533 119.569,328.332 120.902"/>
</svg>
